<!DOCTYPE svg PUBLIC "-//W3C//DTD SVG 1.1//EN" "http://www.w3.org/Graphics/SVG/1.1/DTD/svg11.dtd">
<!-- Uploaded to: SVG Repo, www.svgrepo.com, Transformed by: SVG Repo Mixer Tools -->
<svg width="256px" height="256px" viewBox="0 0 24 24" xmlns="http://www.w3.org/2000/svg" fill="none" stroke="#ffffff">
<g id="SVGRepo_bgCarrier" stroke-width="0"/>
<g id="SVGRepo_tracerCarrier" stroke-linecap="round" stroke-linejoin="round"/>
<g id="SVGRepo_iconCarrier">
<path stroke="#ffffff" stroke-linecap="round" stroke-linejoin="round" stroke-width="2" d="M21 7c0 2.21-4.03 4-9 4S3 9.21 3 7m18 0c0-2.21-4.03-4-9-4S3 4.79 3 7m18 0v5M3 7v5m9 4c-4.97 0-9-1.79-9-4m0 0v5c0 2.21 4.03 4 9 4m6-6v3m0 3v-3m0 0h3m-3 0h-3"/>
</g>
</svg>