<!DOCTYPE svg PUBLIC "-//W3C//DTD SVG 1.1//EN" "http://www.w3.org/Graphics/SVG/1.1/DTD/svg11.dtd">
<!-- Uploaded to: SVG Repo, www.svgrepo.com, Transformed by: SVG Repo Mixer Tools -->
<svg version="1.1" id="Layer_1" xmlns="http://www.w3.org/2000/svg" xmlns:xlink="http://www.w3.org/1999/xlink" viewBox="0 0 512 512" xml:space="preserve" width="256px" height="256px" fill="#000000">
<g id="SVGRepo_bgCarrier" stroke-width="0"/>
<g id="SVGRepo_tracerCarrier" stroke-linecap="round" stroke-linejoin="round"/>
<g id="SVGRepo_iconCarrier"> <rect x="334.979" y="83.064" style="fill:#FEDC3D;" width="54.468" height="54.468"/> <rect x="68.085" y="83.064" style="fill:#FFF1B1;" width="288.681" height="54.468"/> <path style="fill:#4D4D4D;" d="M389.447,8.169h-32.681v85.787h32.681c8.987,0,16.34-7.353,16.34-16.34V24.51 C405.788,15.522,398.434,8.169,389.447,8.169z"/> <path style="fill:#737373;" d="M373.107,24.51v53.106c0,8.987-7.353,16.34-16.34,16.34H68.085c-8.987,0-16.34-7.353-16.34-16.34 V24.51c0-8.987,7.353-16.34,16.34-16.34h288.681C365.753,8.169,373.107,15.522,373.107,24.51z"/> <path style="fill:#4D4D4D;" d="M229.311,49.021H84.425c-4.512,0-8.17-3.658-8.17-8.17s3.658-8.17,8.17-8.17h144.885 c4.512,0,8.17,3.658,8.17,8.17S233.823,49.021,229.311,49.021z"/> <rect x="334.979" y="201.532" style="fill:#FEDC3D;" width="54.468" height="54.468"/> <rect x="68.085" y="201.532" style="fill:#FFF1B1;" width="288.681" height="54.468"/> <path style="fill:#4D4D4D;" d="M389.447,126.637h-32.681v85.787h32.681c8.987,0,16.34-7.353,16.34-16.34v-53.106 C405.788,133.991,398.434,126.637,389.447,126.637z"/> <path style="fill:#737373;" d="M373.107,142.978v53.106c0,8.987-7.353,16.34-16.34,16.34H68.085c-8.987,0-16.34-7.353-16.34-16.34 v-53.106c0-8.987,7.353-16.34,16.34-16.34h288.681C365.753,126.637,373.107,133.991,373.107,142.978z"/> <path style="fill:#4D4D4D;" d="M229.311,167.49H84.425c-4.512,0-8.17-3.658-8.17-8.17s3.658-8.17,8.17-8.17h144.885 c4.512,0,8.17,3.658,8.17,8.17S233.823,167.49,229.311,167.49z"/> <rect x="334.979" y="320.001" style="fill:#FEDC3D;" width="54.468" height="54.468"/> <rect x="68.085" y="320.001" style="fill:#FFF1B1;" width="288.681" height="54.468"/> <path style="fill:#4D4D4D;" d="M389.447,245.106h-32.681v85.787h32.681c8.987,0,16.34-7.353,16.34-16.34v-53.106 C405.788,252.459,398.434,245.106,389.447,245.106z"/> <path style="fill:#737373;" d="M373.107,261.446v53.106c0,8.987-7.353,16.34-16.34,16.34H68.085c-8.987,0-16.34-7.353-16.34-16.34 v-53.106c0-8.987,7.353-16.34,16.34-16.34h288.681C365.753,245.106,373.107,252.459,373.107,261.446z"/> <g> <path style="fill:#4D4D4D;" d="M229.311,285.958H84.425c-4.512,0-8.17-3.658-8.17-8.17s3.658-8.17,8.17-8.17h144.885 c4.512,0,8.17,3.658,8.17,8.17S233.823,285.958,229.311,285.958z"/> <path style="fill:#4D4D4D;" d="M389.447,363.574h-32.681v85.787h32.681c8.987,0,16.34-7.353,16.34-16.34v-53.107 C405.788,370.927,398.434,363.574,389.447,363.574z"/> </g> <path style="fill:#737373;" d="M373.107,379.915v53.107c0,8.987-7.353,16.34-16.34,16.34H68.085c-8.987,0-16.34-7.353-16.34-16.34 v-53.107c0-8.987,7.353-16.34,16.34-16.34h288.681C365.753,363.574,373.107,370.927,373.107,379.915z"/> <path style="fill:#4D4D4D;" d="M209.702,404.425H84.425c-4.512,0-8.17-3.658-8.17-8.17s3.658-8.17,8.17-8.17h125.277 c4.512,0,8.17,3.658,8.17,8.17S214.214,404.425,209.702,404.425z"/> <path style="fill:#B9B9B9;" d="M351.319,285.957V503.83c60.166,0,108.936-48.771,108.936-108.936S411.485,285.957,351.319,285.957z"/> <path style="fill:#DCDCDC;" d="M351.319,285.957c42.115,0,76.255,48.771,76.255,108.936S393.434,503.83,351.319,503.83 c-60.166,0-108.936-48.771-108.936-108.936S291.154,285.957,351.319,285.957z"/> <path style="fill:#737373;" d="M384.545,370.927h-24.783v82.792h24.783c8.987,0,16.34-7.353,16.34-16.34v-50.111 C400.885,378.281,393.532,370.927,384.545,370.927z"/> <path style="fill:#969696;" d="M376.102,387.268v50.111c0,8.987-7.353,16.34-16.34,16.34h-41.668c-8.987,0-16.34-7.353-16.34-16.34 v-50.111c0-8.987,7.353-16.34,16.34-16.34h41.668C368.749,370.927,376.102,378.281,376.102,387.268z"/> <circle cx="261.992" cy="40.851" r="8.17"/> <circle cx="261.992" cy="159.319" r="8.17"/> <path d="M225.011,322.723H68.085c-4.506,0-8.17-3.665-8.17-8.17v-53.106c0-4.503,3.662-8.167,8.165-8.17 c0.016,0,321.357,0,321.357,0c4.519,0.003,8.181,3.667,8.181,8.17v2.729c0,4.512,3.658,8.17,8.17,8.17s8.17-3.658,8.17-8.17v-2.729 c0-10.652-6.831-19.733-16.34-23.105V219.19c9.509-3.373,16.34-12.454,16.34-23.105v-53.106c0-10.651-6.831-19.733-16.34-23.105 v-19.15c9.509-3.373,16.34-12.455,16.34-23.105V24.511C413.958,10.996,402.962,0,389.447,0H68.085 C54.569,0,43.574,10.996,43.574,24.511v53.106c0,10.651,6.831,19.733,16.34,23.105v19.151c-9.509,3.373-16.34,12.455-16.34,23.105 v53.106c0,10.652,6.831,19.733,16.34,23.105v19.151c-9.509,3.373-16.34,12.454-16.34,23.105v53.106 c0,10.652,6.831,19.733,16.34,23.105v19.151c-9.509,3.373-16.34,12.454-16.34,23.105v53.107c0,13.516,10.995,24.511,24.511,24.511 h152.518c4.512,0,8.17-3.658,8.17-8.17s-3.658-8.17-8.17-8.17H68.085c-4.506,0-8.17-3.665-8.17-8.17v-53.107 c0-4.506,3.665-8.17,8.17-8.17h145.113c4.512,0,8.17-3.658,8.17-8.17s-3.658-8.17-8.17-8.17H76.255v-16.34h148.756 c4.512,0,8.17-3.658,8.17-8.17S229.523,322.723,225.011,322.723z M381.277,220.596v16.34H76.255v-16.34H381.277z M76.255,118.468 v-16.34h305.022v16.34H76.255z M59.914,24.511c0-4.505,3.665-8.17,8.17-8.17h321.362c4.506,0,8.17,3.666,8.17,8.17v53.106 c0,4.505-3.665,8.17-8.17,8.17H68.085c-4.506,0-8.17-3.666-8.17-8.17V24.511z M59.914,142.979c0-4.505,3.665-8.17,8.17-8.17h321.362 c4.506,0,8.17,3.666,8.17,8.17v53.106c0,4.506-3.665,8.17-8.17,8.17H68.085c-4.506,0-8.17-3.665-8.17-8.17V142.979z"/> <circle cx="261.992" cy="277.788" r="8.17"/> <path d="M386.724,362.86v-14.264c0-19.252-15.221-33.77-35.404-33.77c-19.521,0-35.404,15.883-35.404,35.404v12.63 c-12.498,1.107-22.332,11.628-22.332,24.408v50.111c0,13.516,10.995,24.511,24.511,24.511h66.451 c13.516,0,24.511-10.995,24.511-24.511v-50.111C409.056,374.487,399.221,363.966,386.724,362.86z M351.319,331.166 c11.046,0,19.064,7.33,19.064,17.43v14.162h-38.128v-12.528C332.255,339.718,340.807,331.166,351.319,331.166z M392.715,437.379 c0,4.506-3.665,8.17-8.17,8.17h-66.451c-4.506,0-8.17-3.665-8.17-8.17v-50.111c0-4.506,3.665-8.17,8.17-8.17h66.451 c4.506,0,8.17,3.665,8.17,8.17V437.379z"/> <path d="M351.319,395.983c-4.512,0-8.17,3.658-8.17,8.17v16.34c0,4.512,3.658,8.17,8.17,8.17s8.17-3.658,8.17-8.17v-16.34 C359.49,399.641,355.832,395.983,351.319,395.983z"/> <path d="M351.319,277.787c-64.573,0-117.107,52.533-117.107,117.107S286.746,512,351.319,512s117.107-52.533,117.107-117.107 S415.893,277.787,351.319,277.787z M351.319,495.66c-55.563,0-100.766-45.203-100.766-100.766s45.203-100.766,100.766-100.766 s100.766,45.203,100.766,100.766S406.882,495.66,351.319,495.66z"/> </g>
</svg>