<!DOCTYPE svg PUBLIC "-//W3C//DTD SVG 1.1//EN" "http://www.w3.org/Graphics/SVG/1.1/DTD/svg11.dtd">
<!-- Uploaded to: SVG Repo, www.svgrepo.com, Transformed by: SVG Repo Mixer Tools -->
<svg fill="#ffffff" height="256px" width="256px" version="1.1" id="Capa_1" xmlns="http://www.w3.org/2000/svg" xmlns:xlink="http://www.w3.org/1999/xlink" viewBox="0 0 383.273 383.273" xml:space="preserve">
<g id="SVGRepo_bgCarrier" stroke-width="0"/>
<g id="SVGRepo_tracerCarrier" stroke-linecap="round" stroke-linejoin="round"/>
<g id="SVGRepo_iconCarrier"> <path d="M194.223,208.347c-8.752-7.901-20.935-12.938-33.262-13.899c-6.951,11.052-21.072,18.353-36.691,18.353 c-15.618,0-29.737-7.238-36.688-18.287c-20.401,1.608-39.704,14.536-43.356,29.559L20.45,322.035h42.848c4.971,0,9,4.029,9,9 s-4.029,9-9,9H9.1c-0.031,0-0.061-0.163-0.092-0.163c-0.13,0-0.262-0.184-0.392-0.19c-0.197-0.008-0.394-0.014-0.587-0.035 c-0.119-0.013-0.239-0.037-0.359-0.055c-0.223-0.033-0.444-0.071-0.662-0.12c-0.045-0.01-0.089-0.013-0.133-0.024 c-0.087-0.021-0.168-0.052-0.254-0.075c-0.158-0.043-0.315-0.088-0.469-0.139c-0.138-0.046-0.273-0.097-0.407-0.149 c-0.136-0.053-0.271-0.107-0.404-0.166c-0.149-0.066-0.294-0.138-0.438-0.211c-0.11-0.056-0.219-0.113-0.326-0.174 c-0.156-0.088-0.308-0.181-0.457-0.278c-0.09-0.058-0.179-0.117-0.266-0.178c-0.153-0.107-0.302-0.219-0.447-0.334 c-0.08-0.064-0.159-0.128-0.237-0.195c-0.14-0.12-0.276-0.243-0.408-0.371c-0.078-0.075-0.155-0.152-0.231-0.23 c-0.12-0.125-0.236-0.252-0.349-0.384c-0.08-0.093-0.158-0.188-0.235-0.284c-0.097-0.123-0.191-0.249-0.282-0.377 c-0.08-0.113-0.158-0.228-0.233-0.345c-0.077-0.12-0.151-0.242-0.222-0.366c-0.075-0.13-0.147-0.262-0.216-0.396 c-0.062-0.121-0.12-0.243-0.177-0.367c-0.064-0.14-0.125-0.281-0.182-0.425c-0.051-0.129-0.098-0.259-0.143-0.391 c-0.048-0.14-0.093-0.281-0.135-0.424c-0.042-0.147-0.08-0.296-0.115-0.446c-0.03-0.13-0.059-0.259-0.084-0.391 c-0.032-0.17-0.057-0.342-0.079-0.515c-0.015-0.117-0.03-0.234-0.04-0.353c-0.016-0.187-0.024-0.374-0.028-0.563 C0.009,330.848,0,330.775,0,330.701c0-0.043,0.006-0.087,0.007-0.13c0.003-0.172,0.013-0.345,0.026-0.518 c0.01-0.144,0.021-0.291,0.037-0.433c0.016-0.131,0.038-0.269,0.06-0.4c0.03-0.182,0.062-0.376,0.103-0.554 c0.009-0.039,0.013-0.105,0.022-0.144l26.479-108.98c5.917-24.333,34.521-43.506,65.12-43.506h1.238 c3.844,0,7.264,2.526,8.512,6.162c2.12,6.173,10.585,12.506,22.666,12.506c12.082,0,20.548-6.305,22.667-12.478 c1.249-3.636,4.668-6.19,8.512-6.19h1.238c18.075,0,36.616,7.109,49.597,18.828c3.689,3.331,3.98,9.134,0.65,12.825 C203.603,211.376,197.912,211.677,194.223,208.347z M332.712,271.154l-10.039,7.271c0.314,2.71,0.472,5.441,0.472,8.17 c0,2.682-0.153,5.368-0.457,8.034l10.024,7.263c7.511,4.881,7.228,16.431-0.805,30.342c-2.963,5.133-10.914,17.07-20.726,17.071 c-1.803,0-3.566-0.414-5.139-1.201l-11.256-5.03c-4.382,3.273-9.1,6.005-14.106,8.168l-1.268,12.218 c-0.462,8.951-10.607,14.485-26.679,14.485c-16.105,0-26.244-5.542-26.681-14.511l-1.266-12.192 c-5.006-2.162-9.722-4.894-14.104-8.167l-11.288,5.044c-1.565,0.777-3.319,1.187-5.109,1.187c-9.812,0-17.763-11.938-20.726-17.072 c-8.053-13.946-8.323-25.498-0.773-30.36l9.992-7.239c-0.304-2.665-0.457-5.353-0.457-8.038c0-2.729,0.159-5.462,0.473-8.172 l-10.031-7.267c-2.879-1.882-6.794-6.271-4.951-15.819c0.855-4.431,2.896-9.589,5.747-14.526c2.963-5.133,10.915-17.07,20.727-17.07 c1.798,0,3.558,0.412,5.128,1.195l11.39,5.09c4.345-3.23,9.016-5.93,13.968-8.07l1.281-12.343 c0.436-8.971,10.574-14.514,26.681-14.514c16.073,0,26.218,5.534,26.679,14.488l1.283,12.369c4.954,2.142,9.625,4.84,13.969,8.07 l11.377-5.084c1.573-0.788,3.337-1.202,5.14-1.202c9.812,0,17.763,11.938,20.726,17.07 C339.941,254.724,340.225,266.274,332.712,271.154z M307.648,267.085l12.224-8.856c-0.442-1.862-1.5-4.864-3.552-8.417 c-2.05-3.551-4.12-5.969-5.512-7.282l-13.836,6.182c-3.215,1.438-6.974,0.866-9.619-1.462c-5.272-4.641-11.297-8.122-17.909-10.346 c-3.341-1.124-5.719-4.095-6.083-7.602l-1.563-15.069c-1.834-0.548-4.962-1.133-9.064-1.133c-4.101,0-7.229,0.585-9.063,1.133 l-1.563,15.069c-0.364,3.507-2.742,6.479-6.084,7.603c-6.608,2.221-12.633,5.701-17.908,10.345 c-2.644,2.328-6.402,2.898-9.618,1.461l-13.836-6.182c-1.391,1.314-3.462,3.731-5.513,7.283c-2.05,3.551-3.108,6.553-3.551,8.415 l12.225,8.856c2.856,2.068,4.24,5.614,3.542,9.07c-0.691,3.422-1.042,6.936-1.042,10.442c0,3.474,0.343,6.949,1.02,10.331 c0.69,3.451-0.694,6.988-3.545,9.054l-12.2,8.839c0.442,1.862,1.5,4.863,3.551,8.415c2.051,3.553,4.122,5.971,5.513,7.285 l13.728-6.134c3.222-1.441,6.99-0.864,9.635,1.476c5.296,4.686,11.356,8.194,18.012,10.431c3.342,1.123,5.722,4.095,6.085,7.602 l1.549,14.92c1.834,0.548,4.963,1.132,9.064,1.132s7.23-0.585,9.064-1.133l1.548-14.918c0.364-3.508,2.743-6.479,6.086-7.603 c6.658-2.237,12.718-5.747,18.014-10.432c2.646-2.341,6.415-2.916,9.636-1.477l13.726,6.134c1.391-1.314,3.461-3.731,5.512-7.283 c2.051-3.553,3.109-6.556,3.552-8.418l-12.2-8.838c-2.849-2.063-4.234-5.599-3.546-9.049c0.677-3.39,1.02-6.867,1.02-10.334 c0-3.509-0.35-7.021-1.041-10.442C303.408,272.698,304.792,269.153,307.648,267.085z M284.443,286.604 c0,17.483-14.225,31.708-31.708,31.708c-17.484,0-31.709-14.225-31.709-31.708s14.225-31.708,31.709-31.708 C270.219,254.896,284.443,269.12,284.443,286.604z M266.443,286.604c0-7.559-6.149-13.708-13.708-13.708 s-13.709,6.149-13.709,13.708s6.15,13.708,13.709,13.708S266.443,294.162,266.443,286.604z M280.81,159.115l8.197-4.781 c4.293-2.504,5.744-8.015,3.24-12.309c-2.504-4.294-8.016-5.743-12.309-3.24l-31.734,18.508c-0.054,0.031-0.102,0.069-0.155,0.102 c-0.172,0.105-0.342,0.214-0.506,0.331c-0.097,0.068-0.189,0.14-0.283,0.211c-0.133,0.103-0.265,0.207-0.392,0.317 c-0.107,0.092-0.21,0.188-0.313,0.284c-0.105,0.1-0.209,0.201-0.309,0.306c-0.105,0.11-0.206,0.222-0.305,0.336 c-0.091,0.105-0.18,0.212-0.266,0.322c-0.092,0.116-0.18,0.235-0.266,0.355c-0.086,0.121-0.168,0.243-0.248,0.367 c-0.073,0.114-0.142,0.229-0.209,0.345c-0.082,0.142-0.16,0.285-0.234,0.431c-0.054,0.106-0.105,0.212-0.154,0.32 c-0.074,0.161-0.143,0.323-0.207,0.489c-0.04,0.102-0.077,0.205-0.113,0.308c-0.059,0.17-0.113,0.341-0.162,0.515 c-0.031,0.112-0.059,0.224-0.086,0.336c-0.039,0.163-0.075,0.327-0.105,0.494c-0.025,0.137-0.044,0.274-0.063,0.412 c-0.019,0.144-0.037,0.288-0.05,0.434c-0.015,0.171-0.021,0.343-0.026,0.515c-0.002,0.082-0.012,0.161-0.012,0.243 c0,0.039,0.005,0.077,0.006,0.115c0.002,0.189,0.014,0.378,0.029,0.567c0.008,0.111,0.014,0.222,0.026,0.331 c0.02,0.178,0.05,0.354,0.081,0.531c0.021,0.12,0.039,0.241,0.064,0.359c0.033,0.154,0.076,0.306,0.118,0.458 c0.038,0.139,0.073,0.278,0.118,0.415c0.042,0.128,0.092,0.254,0.14,0.381c0.058,0.155,0.116,0.311,0.183,0.462 c0.049,0.112,0.106,0.223,0.161,0.334c0.078,0.158,0.156,0.316,0.243,0.469c0.021,0.037,0.037,0.076,0.059,0.113 c0.03,0.052,0.068,0.095,0.099,0.146c0.147,0.24,0.304,0.472,0.471,0.696c0.064,0.086,0.125,0.173,0.191,0.256 c0.211,0.262,0.433,0.514,0.671,0.75c0.084,0.084,0.175,0.158,0.262,0.238c0.171,0.157,0.346,0.309,0.528,0.452 c0.11,0.086,0.22,0.169,0.334,0.25c0.195,0.139,0.397,0.269,0.603,0.393c0.089,0.053,0.174,0.111,0.264,0.16 c0.298,0.165,0.607,0.313,0.925,0.444c0.072,0.029,0.145,0.052,0.218,0.08c0.256,0.098,0.517,0.185,0.783,0.259 c0.105,0.03,0.211,0.056,0.317,0.082c0.24,0.058,0.483,0.104,0.73,0.142c0.113,0.018,0.226,0.039,0.34,0.052 c0.284,0.033,0.573,0.05,0.864,0.056c0.061,0.001,0.121,0.012,0.181,0.012c0.012,0,0.024-0.002,0.036-0.002 c62.032,0.024,112.49,50.499,112.49,112.537c0,4.971,4.029,9,9,9s9-4.029,9-9C383.273,224.259,339.34,171.993,280.81,159.115z M35.558,75.249c-0.417-4.952,3.261-9.306,8.214-9.723c1.538-0.126,3.017,0.142,4.339,0.717c7.847-34.82,39.004-60.916,76.16-60.916 c37.154,0,68.309,26.091,76.16,60.908c1.323-0.577,2.803-0.842,4.341-0.708c4.953,0.416,8.63,4.77,8.213,9.723l-1.172,13.92 c-0.396,4.696-4.33,8.245-8.958,8.245c-0.253,0-0.508-0.01-0.765-0.032c-0.33-0.028-0.653-0.076-0.971-0.137 c-2.661,14.892-9.584,28.717-20.172,39.885c-14.899,15.715-35.027,24.37-56.676,24.37c-21.657,0-42.528-9.111-57.263-24.998 c-6.392-6.892-11.436-14.775-14.993-23.434c-1.553-3.781-2.814-7.715-3.751-11.692c-0.322-1.366-0.603-2.744-0.85-4.128 c-0.315,0.061-0.635,0.108-0.962,0.135c-0.256,0.021-0.512,0.032-0.765,0.032c-4.629,0-8.563-3.55-8.958-8.246L35.558,75.249z M79.142,87.035h8.756c7.762,0,14.319-5.184,14.319-11.5s-6.557-11.5-14.319-11.5h-8.756c-7.761,0-14.318,5.184-14.318,11.5 S71.381,87.035,79.142,87.035z M180.989,103.173c-3.6,1.273-7.505,1.862-11.589,1.862h-8.757c-14.401,0-26.628-8-30.792-20h-11.16 c-4.164,12-16.391,20-30.792,20h-8.756c-4.081,0-7.984-0.587-11.582-1.859c0.346,0.989,0.709,2.09,1.105,3.056 c2.735,6.657,6.618,12.725,11.54,18.031c11.34,12.227,27.401,19.238,44.065,19.238c16.659,0,32.147-6.66,43.613-18.755 C173.792,118.515,178.218,111.089,180.989,103.173z M169.4,64.035h-8.757c-7.762,0-14.319,5.184-14.319,11.5s6.557,11.5,14.319,11.5 h8.757c7.761,0,14.318-5.184,14.318-11.5S177.161,64.035,169.4,64.035z M77.293,46.052c0.612-0.032,1.228-0.017,1.849-0.017h8.756 c14.402,0,26.63,9,30.793,21h11.158c4.163-12,16.391-21,30.793-21h8.757c0.621,0,1.237-0.015,1.849,0.017 c-5.176-6.488-11.66-11.918-19.056-15.817c-7.912,0.162-15.237,3.407-20.684,9.195c-1.771,1.883-4.161,2.833-6.556,2.833 c-2.212,0-4.428-0.811-6.166-2.445c-3.62-3.406-3.794-9.102-0.388-12.722c1.245-1.323,2.567-2.558,3.946-3.719 C104.127,23.954,87.937,32.708,77.293,46.052z M126.771,114.035h-5.001c-4.971,0-9,4.029-9,9s4.029,9,9,9h5.001c4.971,0,9-4.029,9-9 S131.742,114.035,126.771,114.035z"/> </g>
</svg>